<?xml version="1.0" encoding="utf-8"?>
<!-- Generator: Adobe Illustrator 16.0.0, SVG Export Plug-In . SVG Version: 6.00 Build 0)  -->
<!DOCTYPE svg PUBLIC "-//W3C//DTD SVG 1.1//EN" "http://www.w3.org/Graphics/SVG/1.1/DTD/svg11.dtd">
<svg version="1.1" id="Layer_1" xmlns="http://www.w3.org/2000/svg" xmlns:xlink="http://www.w3.org/1999/xlink" x="0px" y="0px"
	 width="480px" height="480px" viewBox="0 0 480 480" enable-background="new 0 0 480 480" xml:space="preserve">
<polygon fill="#333333" points="60.625,270.627 135.971,196.033 160.604,221.018 110.377,270.873 239.885,401.619 370.686,272.143 
	320.818,221.799 345.818,197.061 420.314,272.385 239.643,451.244 "/>
<polygon fill="#333333" points="178.776,306.277 209.689,275.656 240.307,306.582 209.393,337.184 "/>
<polygon fill="#0071BC" points="148.159,275.363 179.077,244.754 209.689,275.66 178.776,306.277 "/>
<polygon fill="#0071BC" points="209.533,337.336 240.451,306.734 271.084,337.641 240.158,368.242 "/>
<polygon fill="#333333" points="240.307,306.582 271.24,275.957 301.861,306.871 270.939,337.488 "/>
<polygon fill="#0071BC" points="271.24,275.961 302.158,245.348 332.779,276.266 301.861,306.871 "/>
<polygon fill="#333333" points="209.689,260.668 240.611,230.059 271.244,260.969 240.311,291.586 "/>
<polygon fill="#0071BC" points="178.92,179.211 209.837,148.609 240.459,179.52 209.533,210.129 "/>
<polygon fill="#333333" points="251.408,120.148 282.33,89.543 312.951,120.457 282.029,151.066 "/>
<polygon fill="#0071BC" points="178.924,58.627 209.846,28.02 240.455,58.92 209.545,89.543 "/>
</svg>
